<svg xmlns="http://www.w3.org/2000/svg" width="1723" height="447" viewBox="0 0 1723 447" version="1.1"><path d="M 44.409 72.500 C 44.408 81.850, 44.558 85.810, 44.743 81.299 C 44.928 76.789, 44.929 69.139, 44.745 64.299 C 44.562 59.460, 44.410 63.150, 44.409 72.500 M 153.250 64.735 C 155.863 64.941, 160.137 64.941, 162.750 64.735 C 165.363 64.529, 163.225 64.360, 158 64.360 C 152.775 64.360, 150.637 64.529, 153.250 64.735 M 208.395 126.500 C 208.396 134.200, 208.553 137.218, 208.743 133.206 C 208.934 129.195, 208.932 122.895, 208.741 119.206 C 208.549 115.518, 208.393 118.800, 208.395 126.500 M 142.287 137.740 C 145.469 137.939, 150.419 137.937, 153.287 137.736 C 156.154 137.535, 153.550 137.372, 147.500 137.374 C 141.450 137.376, 139.104 137.541, 142.287 137.740 M 129.500 151.471 C 90.182 158.718, 54.990 185.893, 36.223 223.500 C 26.031 243.924, 21.696 263.401, 21.646 289 C 21.599 312.889, 25.615 331.705, 35.071 351.889 C 42.516 367.783, 58.396 388.374, 67.590 394.056 C 74.639 398.412, 83 393.307, 83 384.646 C 83 379.958, 81.859 377.960, 74.643 370 C 67.597 362.229, 59.229 349.055, 54.771 338.714 C 35.328 293.616, 43.404 242.841, 75.541 208.129 C 80.328 202.959, 94.048 193, 96.385 193 C 96.779 193, 97.028 224.502, 96.939 263.005 C 96.757 341.505, 96.331 336.935, 104.024 339.006 C 109.302 340.428, 118.149 338.829, 123.086 335.562 C 125.239 334.137, 127.689 331.208, 129.008 328.483 L 131.259 323.833 131.380 250.667 L 131.500 177.500 149.328 177.227 L 167.156 176.953 166.906 252.378 L 166.656 327.803 169.335 330.986 C 178.580 341.973, 187.923 344.781, 195.473 338.843 C 201.425 334.161, 201.214 336.686, 201.777 263.297 C 202.061 226.284, 202.526 196, 202.809 196 C 203.092 196, 205.389 197.198, 207.912 198.662 C 226.403 209.391, 240.494 227.989, 248.386 252.082 C 253.053 266.330, 254.392 276.433, 253.726 292.395 C 252.802 314.565, 247.672 327.724, 227.714 359.124 C 214.674 379.638, 215 378.992, 215 384.299 C 215 389.476, 217.695 393.557, 222.418 395.530 C 227.609 397.699, 230.808 396.299, 238.258 388.596 C 257.534 368.665, 270.994 339.890, 275.018 310.011 C 276.445 299.409, 276.451 276.924, 275.028 267 C 267.639 215.445, 232.490 171.522, 186.218 156.020 C 168.928 150.227, 146.156 148.401, 129.500 151.471 M 1263 172.069 C 1257.225 173.089, 1251.487 174.175, 1250.250 174.481 L 1248 175.038 1248 222.970 C 1248 254.479, 1248.383 272.717, 1249.118 276.201 C 1249.999 280.373, 1251.153 282.386, 1254.546 285.664 C 1261.463 292.348, 1270.985 293.428, 1286.332 289.270 C 1292.061 287.718, 1292.155 287.636, 1291.617 284.595 C 1291.316 282.893, 1290.777 279.182, 1290.419 276.348 L 1289.768 271.196 1283.352 271.348 C 1278.614 271.460, 1276.687 271.108, 1275.983 270 C 1275.413 269.103, 1275.024 248.710, 1275.015 219.250 C 1275.007 192.162, 1274.662 170.048, 1274.250 170.107 C 1273.838 170.166, 1268.775 171.049, 1263 172.069 M 1668.750 170.662 C 1669.695 171.044, 1670 176.386, 1670 192.583 C 1670 204.363, 1670.380 214, 1670.845 214 C 1671.310 214, 1672.547 212.988, 1673.595 211.750 L 1675.500 209.500 1673.250 211.405 L 1671 213.310 1671 191.655 C 1671 171.668, 1670.865 170.006, 1669.250 170.079 C 1668.205 170.126, 1668.003 170.361, 1668.750 170.662 M 642.239 174.629 C 643.850 175.105, 643.999 178.254, 644.256 217.321 L 644.533 259.500 644.517 217.014 C 644.500 175.269, 644.465 174.523, 642.500 174.321 C 640.966 174.163, 640.905 174.235, 642.239 174.629 M 1644.667 174.667 C 1643.741 175.592, 1643.824 286.773, 1644.750 287.346 C 1645.162 287.601, 1645.380 262.571, 1645.233 231.724 C 1645.022 187.321, 1645.231 175.471, 1646.233 174.835 C 1646.971 174.366, 1647.048 174.024, 1646.417 174.015 C 1645.821 174.007, 1645.033 174.300, 1644.667 174.667 M 1056 234.500 L 1056 291 1069.500 291 L 1083 291 1083 267 L 1083 243 1102.500 243 L 1122 243 1122 267 L 1122 291 1136 291 L 1150 291 1150 234.500 L 1150 178 1136 178 L 1122 178 1122 200 L 1122 222 1102.500 222 L 1083 222 1083 200 L 1083 178 1069.500 178 L 1056 178 1056 234.500 M 1437.468 235 C 1437.468 266.075, 1437.594 278.788, 1437.749 263.250 C 1437.904 247.713, 1437.904 222.288, 1437.749 206.750 C 1437.594 191.213, 1437.468 203.925, 1437.468 235 M 1531.468 235 C 1531.468 266.075, 1531.594 278.788, 1531.749 263.250 C 1531.904 247.713, 1531.904 222.288, 1531.749 206.750 C 1531.594 191.213, 1531.468 203.925, 1531.468 235 M 1192.836 207.919 C 1185.504 210.264, 1181.194 212.981, 1176.184 218.416 C 1171.480 223.519, 1167.803 230.438, 1166.100 237.388 C 1164.418 244.250, 1164.642 260.318, 1166.519 267.500 C 1171.287 285.736, 1186.827 294.352, 1210.396 291.827 C 1218.056 291.006, 1233.487 286.639, 1234.496 285.006 C 1234.949 284.273, 1231.377 269.527, 1230.419 268.179 C 1230.294 268.003, 1226.965 268.819, 1223.022 269.994 C 1213.797 272.741, 1203.342 273.557, 1200.030 271.789 C 1197.681 270.536, 1193 264.615, 1193 262.897 C 1193 262.454, 1194.688 261.827, 1196.750 261.504 C 1215.159 258.627, 1226.745 252.393, 1232.788 242.113 C 1236.496 235.805, 1236.632 225.799, 1233.106 218.637 C 1230.537 213.417, 1224.572 208.809, 1218.035 206.993 C 1212.362 205.417, 1199.139 205.903, 1192.836 207.919 M 1307 209.309 C 1301.775 210.968, 1297.307 212.482, 1297.072 212.674 C 1296.837 212.865, 1297.634 214.783, 1298.844 216.936 C 1300.054 219.088, 1301.934 224.330, 1303.022 228.585 C 1304.851 235.739, 1305 239.760, 1305 282.135 L 1305 327.950 1307.750 327.422 C 1309.263 327.132, 1315.225 326.117, 1321 325.166 L 1331.500 323.436 1331.775 307.468 L 1332.050 291.500 1340.275 291.474 C 1349.955 291.444, 1353.920 290.237, 1361.955 284.871 C 1373.273 277.313, 1380 263.323, 1380 247.342 C 1380 224.714, 1371.178 210.255, 1355.371 206.973 C 1349.311 205.715, 1342.135 206.362, 1337.912 208.546 C 1334.430 210.346, 1329.099 216.520, 1327.292 220.843 L 1325.834 224.332 1323.564 217.586 C 1322.315 213.875, 1320.215 209.816, 1318.897 208.566 L 1316.500 206.293 1307 209.309 M 493.983 207.734 L 506.969 208.058 507.258 236.279 L 507.546 264.500 507.523 236 L 507.500 207.500 494.249 207.455 L 480.997 207.409 493.983 207.734 M 533.250 207.742 C 536.962 207.934, 543.038 207.934, 546.750 207.742 C 550.462 207.549, 547.425 207.392, 540 207.392 C 532.575 207.392, 529.538 207.549, 533.250 207.742 M 1557.250 207.742 C 1560.963 207.934, 1567.037 207.934, 1570.750 207.742 C 1574.463 207.549, 1571.425 207.392, 1564 207.392 C 1556.575 207.392, 1553.537 207.549, 1557.250 207.742 M 1596.449 208.273 C 1596.180 208.973, 1596.091 219.660, 1596.250 232.023 L 1596.540 254.500 1596.770 231.279 L 1597 208.058 1610.250 207.747 L 1623.500 207.437 1610.219 207.218 C 1600.227 207.054, 1596.816 207.315, 1596.449 208.273 M 1474.803 222.746 C 1480.470 222.925, 1489.470 222.924, 1494.803 222.745 C 1500.136 222.565, 1495.500 222.419, 1484.500 222.420 C 1473.500 222.421, 1469.136 222.568, 1474.803 222.746 M 464 225.833 C 464 226.612, 461.254 227.067, 455.750 227.201 L 447.500 227.402 455.405 227.746 C 462.716 228.064, 466.436 227.103, 464.683 225.350 C 464.308 224.974, 464 225.192, 464 225.833 M 1197.112 227.380 C 1194.638 230.014, 1192 237.697, 1192 242.270 C 1192 245.137, 1192.108 245.203, 1195.750 244.536 C 1203.050 243.199, 1210 236.878, 1210 231.575 C 1210 225.203, 1201.697 222.501, 1197.112 227.380 M 1337.974 229.028 C 1333.339 233.989, 1332 240.281, 1332 257.094 L 1332 271.824 1335.991 272.499 C 1341.536 273.435, 1346.742 270.726, 1349.437 265.500 C 1351.246 261.993, 1351.500 259.690, 1351.500 246.823 C 1351.500 233.480, 1351.309 231.890, 1349.401 229.323 C 1346.262 225.101, 1341.751 224.985, 1337.974 229.028 M 819.445 260.500 C 819.444 277.550, 819.581 284.666, 819.748 276.312 C 819.915 267.959, 819.915 254.009, 819.748 245.312 C 819.582 236.616, 819.445 243.450, 819.445 260.500 M 747.436 265.500 C 747.436 279.800, 747.577 285.511, 747.748 278.191 C 747.919 270.871, 747.918 259.171, 747.747 252.191 C 747.575 245.211, 747.435 251.200, 747.436 265.500 M 1474.803 242.746 C 1480.470 242.925, 1489.470 242.924, 1494.803 242.745 C 1500.136 242.565, 1495.500 242.419, 1484.500 242.420 C 1473.500 242.421, 1469.136 242.568, 1474.803 242.746 M 1670.382 260.500 C 1670.384 267.100, 1670.546 269.670, 1670.741 266.211 C 1670.937 262.752, 1670.936 257.352, 1670.738 254.211 C 1670.540 251.070, 1670.380 253.900, 1670.382 260.500" stroke="none" fill="#4d6ddc" fill-rule="evenodd"/><path d="M 145 12.008 C 141.229 12.651, 107.194 24.084, 93.500 29.308 C 62.691 41.061, 59.946 42.276, 57.417 45.281 C 55.979 46.990, 54.433 49.362, 53.979 50.554 C 52.928 53.319, 51.235 79.402, 50.001 111.826 C 49.079 136.066, 49.121 137.310, 50.996 140.826 C 53.142 144.850, 55.437 148, 56.224 148 C 56.500 148, 57.974 145.220, 59.499 141.822 L 62.271 135.645 61.590 119.572 L 60.908 103.500 66.204 100.609 C 75.089 95.759, 77.889 93.152, 83.562 84.448 C 90.394 73.966, 93.897 70.560, 103.480 65.077 C 131.363 49.123, 161.362 48.924, 193.500 64.478 C 203.490 69.313, 209.560 74.047, 213.947 80.422 C 217.617 85.757, 221 95.663, 221 101.075 C 221 104.027, 221.367 105.073, 222.280 104.723 C 223.227 104.359, 270.611 90.764, 293.251 84.360 C 294.214 84.087, 295.467 82.995, 296.036 81.932 C 297.693 78.836, 295.516 76.214, 288.695 73.088 C 285.288 71.527, 265.850 62.488, 245.500 53.001 C 214.466 38.535, 177.340 21.513, 160.500 14.030 C 155.227 11.687, 150.501 11.070, 145 12.008 M 20.750 64.728 C -6.759 77.512, -6.760 76.789, 20.770 84.319 C 32.193 87.444, 42.093 90, 42.770 90 C 43.696 90, 44 85.682, 44 72.500 C 44 59.144, 43.704 55.010, 42.750 55.043 C 42.063 55.066, 32.163 59.425, 20.750 64.728 M 131.654 66.547 C 106.377 69.990, 96.518 76.893, 90.835 95.124 C 88.779 101.721, 88.534 104.510, 88.518 121.544 C 88.502 138.227, 88.723 140.929, 90.302 143.339 C 93.524 148.255, 95.703 148.334, 108.753 144.001 C 122.428 139.462, 136.058 137.010, 147.651 137.004 C 158.121 136.999, 176.119 140.085, 188.214 143.959 C 199.833 147.681, 202.342 147.749, 205.661 144.430 L 208.231 141.860 207.702 122.180 C 207.284 106.610, 206.762 101.129, 205.201 95.935 C 200.115 79.005, 192.477 71.082, 177.144 66.830 C 169.120 64.605, 146.925 64.467, 131.654 66.547 M 618 188.925 L 618 206.850 610.750 206.893 C 598.423 206.965, 588.950 210.991, 581.121 219.485 C 572.751 228.565, 569.435 239.574, 570.272 255.500 C 571.370 276.386, 579.802 288.231, 595.664 291.171 C 607.460 293.358, 618.075 288.684, 622.501 279.356 L 624.208 275.759 626.498 281.393 C 629.437 288.625, 631.842 292.268, 633.324 291.733 C 633.971 291.499, 638.643 290.049, 643.707 288.510 L 652.915 285.711 650.534 281.605 C 644.998 272.060, 644.705 269.197, 644.264 220.250 C 644.039 195.363, 643.776 174.997, 643.678 174.993 C 643.580 174.990, 638.325 174.093, 632 173 C 625.675 171.907, 619.938 171.010, 619.250 171.007 C 618.296 171.002, 618 175.248, 618 188.925 M 1655.500 173.048 C 1650 174.053, 1645.384 174.904, 1645.242 174.938 C 1645.100 174.972, 1645.100 200.307, 1645.242 231.238 L 1645.500 287.477 1654.500 289.278 C 1659.529 290.284, 1668.574 291.146, 1675 291.232 C 1684.837 291.363, 1687.336 291.056, 1692.282 289.109 C 1703.639 284.637, 1712.213 275.650, 1716.236 264 C 1719.455 254.677, 1719.424 238.492, 1716.167 228.094 C 1714.198 221.805, 1712.991 219.837, 1708.174 215.055 C 1701.742 208.670, 1697.582 207, 1688.102 207 C 1681.291 207, 1676.495 208.608, 1673.595 211.862 C 1672.547 213.038, 1671.310 214, 1670.845 214 C 1670.380 214, 1670 204.325, 1670 192.500 L 1670 171 1667.750 171.110 C 1666.513 171.171, 1661 172.043, 1655.500 173.048 M 352.024 178.535 C 341.165 181.588, 331.946 189.337, 328.529 198.285 C 326.275 204.186, 326.747 217.779, 329.381 222.810 C 333.779 231.213, 342.565 237.907, 357.238 244.035 C 371.351 249.930, 375.703 256.502, 371.441 265.484 C 367.573 273.634, 357.747 273.994, 342.439 266.547 C 337.257 264.026, 332.689 261.926, 332.287 261.879 C 331.885 261.833, 329.642 265.925, 327.303 270.974 L 323.050 280.153 331.275 283.995 C 350.108 292.792, 367.452 294.060, 381.430 287.661 C 388.984 284.202, 394.473 278.815, 398.240 271.164 C 401.190 265.173, 401.500 263.684, 401.500 255.521 C 401.500 239.378, 396.818 233.306, 377 223.745 C 359.890 215.492, 356.021 212.103, 356.007 205.361 C 355.986 195.591, 368.144 193.891, 383.639 201.496 C 387.566 203.423, 391.049 205, 391.379 205 C 391.710 205, 393.984 201.009, 396.434 196.132 L 400.888 187.263 394.627 184.211 C 385.785 179.899, 377.967 177.988, 367 177.457 C 360.264 177.130, 355.907 177.444, 352.024 178.535 M 902.435 189.215 C 902.769 195.422, 903.301 205.113, 903.617 210.750 L 904.192 221 912.991 221 L 921.789 221 922.429 205.250 C 922.781 196.588, 923.166 187.025, 923.285 184 L 923.500 178.500 912.663 178.215 L 901.827 177.931 902.435 189.215 M 1438 234.500 L 1438 291 1451.500 291 L 1465 291 1465 266.500 L 1465 242 1484.500 242 L 1504 242 1504 266.500 L 1504 291 1517.500 291 L 1531 291 1531 234.471 L 1531 177.942 1517.750 178.221 L 1504.500 178.500 1504.231 200.750 L 1503.962 223 1484.481 223 L 1465 223 1465 200.500 L 1465 178 1451.500 178 L 1438 178 1438 234.500 M 443.500 187.010 C 441.850 187.466, 437.080 188.580, 432.901 189.486 L 425.302 191.134 424.048 199.567 L 422.793 208 415.896 208 L 409 208 409 217.500 L 409 227 415.500 227 L 422 227 422 249.818 C 422 279.793, 423.025 283.407, 433 288.582 C 441.020 292.744, 472.953 290.749, 471.586 286.172 C 471.312 285.253, 470.336 281.457, 469.419 277.737 L 467.750 270.974 460.008 271.620 C 452.963 272.207, 452.073 272.073, 450.133 270.133 C 448.094 268.094, 448 267.092, 448 247.500 L 448 227 455.981 227 C 464.981 227, 463.989 228.035, 465.973 216.566 C 467.559 207.402, 468.151 208, 457.500 208 L 448 208 448 197 C 448 190.950, 447.663 186.041, 447.250 186.090 C 446.837 186.140, 445.150 186.554, 443.500 187.010 M 858.387 188.556 C 847.106 190.962, 846 191.423, 846 193.727 C 846 194.612, 845.504 198.186, 844.897 201.668 L 843.795 208 836.897 208 L 830 208 830 217.500 L 830 227 836.410 227 L 842.821 227 843.160 251.750 C 843.493 275.994, 843.551 276.591, 846 280.946 C 849.890 287.865, 855.751 290.411, 868.778 290.843 C 876.132 291.086, 881.127 290.694, 886.061 289.485 C 889.877 288.550, 893 287.559, 893 287.283 C 893 287.007, 892.024 283.059, 890.830 278.509 L 888.661 270.237 885.587 271.118 C 880.013 272.717, 873.194 272.194, 871 270 C 869.130 268.130, 869 266.667, 869 247.500 L 869 227 877.310 227 L 885.620 227 887.122 217.500 L 888.624 208 878.845 208 L 869.066 208 868.783 197.199 L 868.500 186.399 858.387 188.556 M 691.500 207.346 C 676.655 211.213, 666.935 220.942, 662.473 236.404 C 661.132 241.049, 660.871 244.884, 661.250 254.404 C 661.861 269.758, 663.547 274.519, 671.076 282.156 C 675.708 286.855, 677.800 288.167, 683.431 289.906 C 695.001 293.479, 710.984 292.391, 725.126 287.067 L 730.752 284.949 728.389 276.821 C 727.090 272.350, 725.897 268.564, 725.739 268.406 C 725.582 268.248, 722.763 269.026, 719.476 270.133 C 716.189 271.241, 710.103 272.397, 705.950 272.703 C 697.178 273.348, 692.987 271.809, 690.517 267.033 C 688.122 262.401, 688.534 261, 692.290 261 C 701.321 261, 715.559 255.283, 722.576 248.840 C 728.766 243.156, 730.956 238.231, 730.956 230 C 730.956 219.417, 726.460 212.381, 717.129 208.363 C 712.271 206.271, 697.827 205.697, 691.500 207.346 M 789.839 207.176 C 782.052 208.180, 775.691 211.408, 771 216.738 L 767.040 221.236 765.993 218.368 C 763.555 211.689, 762.715 210.052, 760.867 208.380 C 758.789 206.499, 759.892 206.277, 740.294 212.520 C 739.457 212.786, 739.816 214.221, 741.466 217.202 C 746.506 226.307, 747.219 231.436, 747.728 262.250 L 748.203 291 761.042 291 L 773.881 291 774.190 264.250 C 774.527 235.210, 774.628 234.645, 780.544 228.729 C 783.197 226.075, 787.251 225.196, 789.600 226.765 C 792.661 228.809, 793 232.269, 793 261.434 L 793 291 806.049 291 L 819.099 291 818.799 257.250 L 818.500 223.500 815.777 218 C 814.157 214.728, 811.657 211.558, 809.605 210.174 C 805.461 207.380, 797.559 206.182, 789.839 207.176 M 957.803 207.399 C 951.429 209.115, 945.575 213.174, 942.270 218.168 C 938.386 224.037, 937.794 234.877, 940.995 241.490 C 943.690 247.057, 947.408 250.011, 959.886 256.500 C 966.724 260.056, 969.879 262.299, 970.812 264.266 C 974.934 272.954, 963.946 275.518, 950.283 269.056 L 944.202 266.181 940.087 275.163 C 937.824 280.104, 936.221 284.549, 936.526 285.042 C 936.831 285.535, 940.774 287.134, 945.290 288.596 C 954.853 291.692, 971.779 292.961, 978.657 291.099 C 989.581 288.140, 996.993 279.243, 997.797 268.123 C 998.709 255.520, 994.116 249.072, 978.770 241.415 C 968.122 236.101, 965 233.592, 965 230.349 C 965 224.532, 972.969 223.812, 983.904 228.640 C 986.876 229.952, 989.424 230.908, 989.567 230.763 C 990.210 230.112, 997 214.652, 997 213.840 C 997 212.399, 988.730 209.232, 980.564 207.545 C 971.693 205.713, 964.246 205.665, 957.803 207.399 M 481.229 240.750 C 481.626 275.466, 481.851 277.233, 486.696 283.759 C 490.608 289.028, 496.261 291.392, 505 291.412 C 515.589 291.437, 522.115 288.909, 528.750 282.211 C 531.959 278.971, 534 277.524, 534 278.489 C 534 280.525, 538.433 289.285, 540.210 290.759 C 541.253 291.625, 543.978 291.136, 551.715 288.697 L 561.854 285.500 559.937 283.151 C 558.882 281.859, 557.021 277.809, 555.802 274.151 C 553.751 268.001, 553.557 265.260, 553.225 237.750 L 552.866 208 540.008 208 L 527.149 208 526.825 233.750 L 526.500 259.500 523.646 264.648 C 518.345 274.213, 510.363 275.571, 508.066 267.299 C 507.443 265.057, 507.009 252.128, 507.006 235.750 L 507 208 493.927 208 L 480.855 208 481.229 240.750 M 1551.189 241.250 C 1551.481 272.471, 1551.627 274.775, 1553.583 279 C 1558.237 289.053, 1568.157 293.416, 1580.992 291.055 C 1589.279 289.531, 1596.580 285.557, 1600.156 280.624 C 1602.591 277.265, 1603.053 276.998, 1603.618 278.624 C 1604.977 282.536, 1607.940 288.571, 1609.378 290.354 C 1610.821 292.144, 1611.207 292.097, 1620.686 288.967 C 1626.084 287.185, 1630.619 285.632, 1630.765 285.516 C 1630.910 285.399, 1629.916 283.313, 1628.556 280.879 C 1623.834 272.431, 1623.031 265.888, 1623.015 235.750 L 1623 208 1610.088 208 L 1597.177 208 1596.826 233.250 C 1596.507 256.299, 1596.294 258.895, 1594.390 263.033 C 1592.220 267.749, 1586.934 273, 1584.358 273 C 1581.586 273, 1579.215 271.056, 1578.105 267.872 C 1577.399 265.846, 1577 254.471, 1577 236.351 L 1577 208 1563.939 208 L 1550.878 208 1551.189 241.250 M 695.241 225.325 C 691.884 227.190, 689.818 230.661, 688.347 236.909 C 686.516 244.688, 686.581 245, 690.032 245 C 697.066 245, 704.629 239.060, 705.656 232.730 C 706.137 229.769, 705.791 228.700, 703.664 226.573 C 700.834 223.743, 698.668 223.422, 695.241 225.325 M 606.071 226.752 C 604.185 227.713, 601.808 229.639, 600.789 231.032 C 596.794 236.488, 595.906 259.052, 599.359 267.318 C 602.132 273.953, 607.942 274.590, 612.359 268.742 C 616.596 263.132, 618 256.088, 618 240.443 L 618 226.250 614.875 225.625 C 610.425 224.735, 609.892 224.803, 606.071 226.752 M 1678.094 227.574 C 1673.241 231.658, 1670.904 240.642, 1670.263 257.679 L 1669.729 271.859 1673.365 272.541 C 1681.641 274.093, 1687.706 270.320, 1689.956 262.219 C 1691.648 256.127, 1691.271 235.718, 1689.380 230.991 C 1686.790 224.519, 1683.065 223.391, 1678.094 227.574 M 142.949 347.304 C 129.406 351.130, 120 364.745, 120 380.523 C 120 388.734, 121.793 394.244, 127.176 402.571 C 129.639 406.382, 136.062 417.938, 141.448 428.250 C 146.835 438.563, 151.561 447, 151.952 447 C 152.342 447, 157.100 437.663, 162.525 426.250 C 167.951 414.837, 173.846 403.250, 175.627 400.500 C 184.952 386.098, 183.523 368.117, 172.067 355.688 C 164.967 347.986, 152.868 344.502, 142.949 347.304" stroke="none" fill="#242424" fill-rule="evenodd"/></svg>