<svg xmlns="http://www.w3.org/2000/svg" viewBox="0 0 500 500"><g id="freepik--background-complete--inject-3"><rect y="382.4" width="500" height="0.25" style="fill:#ebebeb"></rect><rect x="416.78" y="398.49" width="33.12" height="0.25" style="fill:#ebebeb"></rect><rect x="322.53" y="401.21" width="8.69" height="0.25" style="fill:#ebebeb"></rect><rect x="396.59" y="389.21" width="19.19" height="0.25" style="fill:#ebebeb"></rect><rect x="52.46" y="390.89" width="43.19" height="0.25" style="fill:#ebebeb"></rect><rect x="104.56" y="390.89" width="6.33" height="0.25" style="fill:#ebebeb"></rect><rect x="131.47" y="395.11" width="93.68" height="0.25" style="fill:#ebebeb"></rect><path d="M237,337.8H43.91a5.71,5.71,0,0,1-5.7-5.71V60.66A5.71,5.71,0,0,1,43.91,55H237a5.71,5.71,0,0,1,5.71,5.71V332.09A5.71,5.71,0,0,1,237,337.8ZM43.91,55.2a5.46,5.46,0,0,0-5.45,5.46V332.09a5.46,5.46,0,0,0,5.45,5.46H237a5.47,5.47,0,0,0,5.46-5.46V60.66A5.47,5.47,0,0,0,237,55.2Z" style="fill:#ebebeb"></path><path d="M453.31,337.8H260.21a5.72,5.72,0,0,1-5.71-5.71V60.66A5.72,5.72,0,0,1,260.21,55h193.1A5.71,5.71,0,0,1,459,60.66V332.09A5.71,5.71,0,0,1,453.31,337.8ZM260.21,55.2a5.47,5.47,0,0,0-5.46,5.46V332.09a5.47,5.47,0,0,0,5.46,5.46h193.1a5.47,5.47,0,0,0,5.46-5.46V60.66a5.47,5.47,0,0,0-5.46-5.46Z" style="fill:#ebebeb"></path><circle cx="92.33" cy="205.19" r="8.81" style="fill:#f5f5f5"></circle><polygon points="97.27 222.86 87.39 222.86 84.7 210.15 99.96 210.15 97.27 222.86" style="fill:#ebebeb"></polygon><rect x="384.64" y="97.16" width="63.48" height="296.5" style="fill:#f5f5f5"></rect><polygon points="389.45 393.66 303.36 393.66 303.36 97.16 389.45 97.16 389.45 97.76 389.45 393.66" style="fill:#e0e0e0"></polygon><polygon points="389.45 393.66 303.36 393.66 303.36 97.16 392.63 97.16 389.45 97.76 389.45 393.66" style="fill:#263238;opacity:0.4"></polygon><polygon points="392.63 393.66 324.61 406.56 324.61 110.05 392.63 97.16 392.63 393.66" style="fill:#f0f0f0"></polygon><path d="M443.44,154.11h-58.6a5.3,5.3,0,0,1-2.09-10.17l28.85-12.39h3.63a6.44,6.44,0,0,0,6.54-6.16,6.28,6.28,0,1,0-12.56-.12h-3a9.29,9.29,0,0,1,9.28-9.28,9.22,9.22,0,0,1,4.82,17.12l25.22,10.83a5.3,5.3,0,0,1-2.09,10.17Zm-31.22-19.56L383.94,146.7a2.3,2.3,0,0,0,.9,4.41h58.6a2.3,2.3,0,0,0,.91-4.41L416,134.52c-.26,0-.51,0-.77,0Z" style="fill:#e0e0e0"></path><circle cx="415.52" cy="121" r="2" style="fill:#263238;opacity:0.5"></circle><rect x="81.44" y="139.56" width="6.53" height="38.31" style="fill:#ebebeb"></rect><rect x="89.81" y="139.56" width="6.53" height="38.31" style="fill:#ebebeb"></rect><rect x="103.44" y="139.78" width="6.53" height="38.31" transform="translate(-52.85 53.16) rotate(-22.58)" style="fill:#ebebeb"></rect><rect x="123.27" y="145.37" width="6.53" height="38.31" transform="translate(-80.61 177.67) rotate(-56.07)" style="fill:#ebebeb"></rect><rect x="71.21" y="177.76" width="151.89" height="6.48" style="fill:#f0f0f0"></rect><rect x="71.21" y="222.86" width="151.89" height="6.48" style="fill:#f0f0f0"></rect><rect x="239.23" y="117.21" width="42.66" height="53.01" transform="translate(44.31 -60.69) rotate(14.51)" style="fill:#f0f0f0"></rect><rect x="244.51" y="123.77" width="32.09" height="39.87" transform="translate(44.31 -60.69) rotate(14.51)" style="fill:#fafafa"></rect><path d="M272.25,106.47a2,2,0,1,0-2.42,1.43A2,2,0,0,0,272.25,106.47Z" style="fill:#e0e0e0"></path><line x1="270.32" y1="105.98" x2="255.14" y2="117.28" style="fill:none;stroke:#e0e0e0;stroke-miterlimit:10"></line><line x1="270.32" y1="105.98" x2="278.12" y2="123.23" style="fill:none;stroke:#e0e0e0;stroke-miterlimit:10"></line><circle cx="183.42" cy="101.58" r="21.68" style="fill:#ebebeb"></circle><circle cx="183.42" cy="101.58" r="17.01" transform="translate(-18.11 159.45) rotate(-45)" style="fill:#fafafa"></circle><circle cx="183.42" cy="101.58" r="1.56" style="fill:#ebebeb"></circle><polygon points="183.46 102.14 175.52 94.2 176.08 93.64 183.46 101.03 193.37 91.12 193.93 91.67 183.46 102.14" style="fill:#ebebeb"></polygon></g><g id="freepik--Shadow--inject-3"><ellipse id="freepik--path--inject-3" cx="248.06" cy="416.24" rx="193.89" ry="11.32" style="fill:#f5f5f5"></ellipse></g><g id="freepik--Character--inject-3"><rect x="169.67" y="331.1" width="8.94" height="85.14" style="fill:#4366D7"></rect><rect x="85.48" y="331.1" width="8.94" height="85.14" style="fill:#4366D7"></rect><rect x="123.94" y="331.1" width="8.94" height="85.14" style="fill:#4366D7"></rect><rect x="169.67" y="331.1" width="8.94" height="85.14" style="fill:#263238;opacity:0.2"></rect><rect x="85.48" y="331.1" width="8.94" height="85.14" style="fill:#263238;opacity:0.2"></rect><rect x="123.94" y="331.1" width="8.94" height="85.14" style="fill:#263238;opacity:0.2"></rect><rect x="169.67" y="331.1" width="8.94" height="85.14" style="fill:#fff;opacity:0.1;isolation:isolate"></rect><rect x="85.48" y="331.1" width="8.94" height="85.14" style="fill:#fff;opacity:0.1;isolation:isolate"></rect><rect x="123.94" y="331.1" width="8.94" height="85.14" style="fill:#fff;opacity:0.1;isolation:isolate"></rect><rect x="169.67" y="331.1" width="8.94" height="14.9" style="fill:#263238;opacity:0.2"></rect><rect x="85.48" y="331.1" width="8.94" height="14.9" style="fill:#263238;opacity:0.2"></rect><rect x="123.94" y="331.1" width="8.94" height="14.9" style="fill:#263238;opacity:0.2"></rect><path d="M104.49,223.78h36.76a19,19,0,0,1,19,19V331.1a0,0,0,0,1,0,0H85.48a0,0,0,0,1,0,0V242.79A19,19,0,0,1,104.49,223.78Z" style="fill:#4366D7"></path><path d="M104.49,223.78h36.76a19,19,0,0,1,19,19V331.1a0,0,0,0,1,0,0H85.48a0,0,0,0,1,0,0V242.79A19,19,0,0,1,104.49,223.78Z" style="fill:#fff;opacity:0.2;isolation:isolate"></path><path d="M113.43,223.78h36.76a19,19,0,0,1,19,19V331.1a0,0,0,0,1,0,0H94.42a0,0,0,0,1,0,0V242.79A19,19,0,0,1,113.43,223.78Z" style="fill:#4366D7"></path><path d="M113.43,223.78h36.76a19,19,0,0,1,19,19V331.1a0,0,0,0,1,0,0H94.42a0,0,0,0,1,0,0V242.79A19,19,0,0,1,113.43,223.78Z" style="fill:#263238;opacity:0.6000000000000001"></path><rect x="85.48" y="322.09" width="96.29" height="15.46" style="fill:#4366D7"></rect><rect x="85.48" y="322.09" width="96.29" height="15.46" style="fill:#fff;opacity:0.2;isolation:isolate"></rect><path d="M104.53,226c.21,13.48,1.37,84.07,2,88.23.74,4.61,2.82,7.87,6.29,7.87h24l-11.31-98.31H113.43A18.92,18.92,0,0,0,104.53,226Z" style="fill:#263238;opacity:0.30000000000000004"></path><path d="M113.67,166.89s2.65-4.6,5.77-6.39,8.72-2.67,10.06-1.15-.89,6.76-4.63,8.46a52.49,52.49,0,0,0-8.1,5Z" style="fill:#ebb376"></path><path d="M155.45,167.82s-2.24-3.89-4.87-5.4-7.38-2.25-8.51-1,.75,5.72,3.92,7.15a44.07,44.07,0,0,1,6.84,4.21Z" style="fill:#ebb376"></path><path d="M155.62,165.78s27.26,23.09,31.44,29-23.63,29.72-32.56,29c-10.39-.86-11.07-16.32-5-16.35,5.11,0,10.12-4.72,14-7a4.43,4.43,0,0,0,1.35-6.37l-14.7-20.72Z" style="fill:#4366D7"></path><path d="M157.3,291.17l-13.05-8.56s-4.75,25.34-1.1,32.09c6.51,12.05,41.62,6,51.89,7.15C188.9,347,189.5,396,189.5,396l14.67,1.12s12.54-52.79,13.57-78C218.72,295.34,171.68,296.33,157.3,291.17Z" style="fill:#4366D7"></path><path d="M157.3,291.17l-13.05-8.56s-4.75,25.34-1.1,32.09c6.51,12.05,41.62,6,51.89,7.15C188.9,347,189.5,396,189.5,396l14.67,1.12s12.54-52.79,13.57-78C218.72,295.34,171.68,296.33,157.3,291.17Z" style="fill:#263238;opacity:0.5"></path><path d="M153.29,295.34,180,322.09c4.37-.19,8.37-.4,11.47-.4.23-3.33,1-8.14-.59-12.7C187.37,299.23,153.29,295.34,153.29,295.34Z" style="fill:#263238;opacity:0.2"></path><polygon points="192 409.99 200.01 409.35 202.18 390.5 194.18 391.16 192 409.99" style="fill:#ebb376"></polygon><path d="M201.32,409.33s0,.05,0,.06a.09.09,0,0,0,.07,0,9.42,9.42,0,0,0,2,.84,2.1,2.1,0,0,0,1.56,0,1,1,0,0,0,.51-.95.71.71,0,0,0-.28-.63,3.33,3.33,0,0,0-2.24-.06A2.87,2.87,0,0,0,204.1,407a.7.7,0,0,0-.49-.73.93.93,0,0,0-.8,0c-1,.54-1.35,2.78-1.38,2.9h0l-.14,0A.11.11,0,0,0,201.32,409.33Zm.6-.45-.18.06c.19-.74.59-1.95,1.17-2.26a.55.55,0,0,1,.43-.06l.09,0c.25.1.28.25.27.36C203.63,407.55,202.71,408.45,201.92,408.88Zm0,.42c1.06-.32,2.53-.61,3-.27a.36.36,0,0,1,.13.31.69.69,0,0,1-.31.6C204.28,410.2,203.26,410,202,409.3Z" style="fill:#4366D7"></path><polygon points="194.18 391.16 202.18 390.51 200.94 401.29 192.97 401.53 194.18 391.16" style="opacity:0.2;isolation:isolate"></polygon><path d="M200.66,408.42l-8.95-1.06a.55.55,0,0,0-.65.47h0l-1.28,7a1.42,1.42,0,0,0,1.23,1.58c3.13.32,4.64.32,8.58.76,2.42.28,7.17,1.07,10.54.93s3.15-3.46,1.71-3.7c-3.41-.58-7.81-3.36-9.85-5.39A2.27,2.27,0,0,0,200.66,408.42Z" style="fill:#263238"></path><polygon points="188.35 397.01 206.01 397.58 207.27 389.99 187.88 389.74 188.35 397.01" style="fill:#4366D7"></polygon><polygon points="188.35 397.01 206.01 397.58 207.27 389.99 187.88 389.74 188.35 397.01" style="fill:#fff;opacity:0.2"></polygon><polygon points="162.29 410.53 170.26 409.44 171.36 390.5 163.41 391.61 162.29 410.53" style="fill:#ebb376"></polygon><polygon points="163.41 391.61 171.36 390.51 170.73 401.34 162.78 402.04 163.41 391.61" style="opacity:0.2;isolation:isolate"></polygon><path d="M153.29,295.34l-2.58-10.57-36.09-2.16s-4.74,25.34-1.1,32.09c3.14,5.81,12.92,7.41,23.37,7.63,11.22.25,28.47.23,28.47.23-6.14,25.11-5.49,73.47-5.49,73.47l14.67,1.12s11.29-52.87,13.57-78C189.65,302.2,167.66,300.5,153.29,295.34Z" style="fill:#4366D7"></path><path d="M153.29,295.34l-2.58-10.57-36.09-2.16s-4.74,25.34-1.1,32.09c3.14,5.81,12.92,7.41,23.37,7.63,11.22.25,28.47.23,28.47.23-6.14,25.11-5.49,73.47-5.49,73.47l14.67,1.12s11.29-52.87,13.57-78C189.65,302.2,167.66,300.5,153.29,295.34Z" style="fill:#263238;opacity:0.5"></path><polygon points="158.15 396.73 175.78 397.88 177.29 390.33 157.92 389.44 158.15 396.73" style="fill:#4366D7"></polygon><path d="M112.15,295.34c-3-2.29.19-23.61-1.65-44.54-3.68-41.87,0-42.15,2.35-43.14a90.26,90.26,0,0,1,13.13-1.3,168.17,168.17,0,0,1,19.31.42,84.74,84.74,0,0,1,13,2.64S160,243,164.83,289.68Z" style="fill:#4366D7"></path><polygon points="140.68 211.78 144.2 227.57 139.98 227.57 136.88 211.78 140.68 211.78" style="fill:#fff;opacity:0.6000000000000001;isolation:isolate"></polygon><polygon points="158.15 396.73 175.78 397.88 177.29 390.33 157.92 389.44 158.15 396.73" style="fill:#fff;opacity:0.2"></polygon><path d="M173.22,410.27s.16,0,.16,0,.18,0,.21.07,0,.05,0,.06a.09.09,0,0,0,.07,0,9.34,9.34,0,0,0,2.09.42,2.16,2.16,0,0,0,1.53-.3,1,1,0,0,0,.29-1,.73.73,0,0,0-.4-.56,3.28,3.28,0,0,0-2.23.41,2.83,2.83,0,0,0,.79-1.84.76.76,0,0,0-.68-.6,1.13,1.13,0,0,0-.89.21c-.84.72-1,3-1,3.13h0Zm.86-.47-.17.09a4.05,4.05,0,0,1,.68-2.45.53.53,0,0,1,.41-.15h.09c.27.05.33.19.34.3A3.84,3.84,0,0,1,174.08,409.8Zm.11.4c1-.53,2.35-1.12,2.86-.88a.32.32,0,0,1,.19.27.7.7,0,0,1-.17.66C176.67,410.59,175.61,410.57,174.19,410.2Z" style="fill:#4366D7"></path><path d="M170.86,408.48l-9-.56a.57.57,0,0,0-.63.51h0l-.88,7.1a1.42,1.42,0,0,0,1.31,1.51c3.14.14,4.65.06,8.61.27a74.54,74.54,0,0,0,10.58.34c3.35-.33,2.94-3.63,1.49-3.79-3.43-.39-8-2.92-10.13-4.83A2.25,2.25,0,0,0,170.86,408.48Z" style="fill:#263238"></path><path d="M112.86,165.78s-27.26,23.09-31.43,29,23.63,29.72,32.56,29c10.38-.86,11-16.25,4.88-16.94-5-.57-10-4.13-13.93-6.44A4.43,4.43,0,0,1,103.6,194l14.7-20.72Z" style="fill:#4366D7"></path><path d="M141.12,216.52a1.14,1.14,0,1,0-1.14,1.13A1.14,1.14,0,0,0,141.12,216.52Z" style="fill:#fff"></path><path d="M142.25,223a1.14,1.14,0,1,0-1.13,1.13A1.14,1.14,0,0,0,142.25,223Z" style="fill:#fff"></path><path d="M128.35,184.71c1.09,6.24,2.06,17.64-2.37,21.7a19.94,19.94,0,0,0,14,6.36c8,.35,5.31-6,5.31-6-6.9-1.8-6.61-6.94-5.3-11.74Z" style="fill:#ebb376"></path><path d="M133.1,188.94l6.88,6.14a20.77,20.77,0,0,0-.67,3.41c-2.64-.43-6.2-3.42-6.43-6.2A9,9,0,0,1,133.1,188.94Z" style="opacity:0.2;isolation:isolate"></path><path d="M143.47,168.56c-3.45,2.34-1.88,6.3,5.93,12.51,3.16-4.11,3.69-12.09,1.17-14.1S146.48,166.53,143.47,168.56Z" style="fill:#263238"></path><path d="M128.64,175c.38,8.43.17,13.37,4.34,17.77,6.29,6.61,16.74,2.93,18.9-5.44,1.92-7.52,1-20-7.19-23.53A11.51,11.51,0,0,0,128.64,175Z" style="fill:#ebb376"></path><path d="M141.17,177.5c0,.69.35,1.25.8,1.26s.81-.54.82-1.23-.33-1.24-.78-1.25S141.23,176.83,141.17,177.5Z" style="fill:#263238"></path><path d="M149,177.65c0,.68.35,1.24.79,1.25s.83-.53.84-1.23-.34-1.25-.79-1.25S149,177,149,177.65Z" style="fill:#263238"></path><path d="M146.42,177.93a24.39,24.39,0,0,0,3.17,5.91,4,4,0,0,1-3.29.56Z" style="fill:#d58745"></path><path d="M139.09,175a.37.37,0,0,1-.33-.62,4,4,0,0,1,3.3-1.61.38.38,0,0,1,.37.41v0a.43.43,0,0,1-.44.36h0a3.17,3.17,0,0,0-2.59,1.3A.44.44,0,0,1,139.09,175Z" style="fill:#263238"></path><path d="M152.55,175.08a.41.41,0,0,1-.36-.23A3.17,3.17,0,0,0,150,173a.4.4,0,0,1-.34-.46.39.39,0,0,1,.44-.34,4,4,0,0,1,2.86,2.32.4.4,0,0,1-.19.53h0A.33.33,0,0,1,152.55,175.08Z" style="fill:#263238"></path><path d="M142.31,187.28s3.9-1,5.79,2.05" style="fill:none;stroke:#263238;stroke-linecap:round;stroke-linejoin:round;stroke-width:0.526291px"></path><path d="M129.45,179.49c7.47-3.45,4.65-11.5,4.65-11.5s6.76,1.7,11.1-2.21c0,0,4.21,5.42,7,6.68,0,0,2.25-15.15-11.61-16.83s-16.18,6.12-16.18,6.12-4.3,1.09-5.34,8.43c-.43,3-.76,19,10.1,20.8Z" style="fill:#263238"></path><path d="M124.52,181.65a8,8,0,0,0,3.73,4.86c2.45,1.38,4.34-.65,4.22-3.3-.1-2.4-1.51-6-4.23-6.3S123.85,179.13,124.52,181.65Z" style="fill:#ebb376"></path><path d="M121,180.81a6.82,6.82,0,0,1-.31,1.24,4.54,4.54,0,0,1-.55,1.13,2.67,2.67,0,0,1-.91.86,2.07,2.07,0,0,1-1.19.19,1.87,1.87,0,0,0,1-.4,2.19,2.19,0,0,0,.61-.89,3.9,3.9,0,0,0,.26-1.07,5.74,5.74,0,0,0,0-1.09Z" style="fill:#263238"></path><path d="M125.07,162.22a7.84,7.84,0,0,1-1.35.11,6,6,0,0,1-1.33-.13,2.78,2.78,0,0,1-1.23-.54,1.88,1.88,0,0,1-.65-1.12,1.74,1.74,0,0,0,.79.91,2.52,2.52,0,0,0,1.15.26,6.73,6.73,0,0,0,2.35-.46Z" style="fill:#263238"></path><path d="M134.27,167.39a8.84,8.84,0,0,1,.76,1.12,6.13,6.13,0,0,1,.54,1.23,2.89,2.89,0,0,1,.13,1.34,1.89,1.89,0,0,1-.66,1.1,1.73,1.73,0,0,0,.41-1.13,2.48,2.48,0,0,0-.34-1.12,6.68,6.68,0,0,0-1.55-1.83Z" style="fill:#263238"></path><path d="M138.21,155.39a9.89,9.89,0,0,0,3.43.32,3.51,3.51,0,0,0,1.61-.54,2.49,2.49,0,0,0,1-1.4,2.7,2.7,0,0,1-.84,1.6,3.85,3.85,0,0,1-1.68.83,9,9,0,0,1-1.85.25,11.88,11.88,0,0,1-1.88-.08Z" style="fill:#263238"></path></g><g id="freepik--Table--inject-3"><rect x="310.8" y="186.47" width="39.35" height="53.81" transform="translate(-39.38 79.38) rotate(-12.93)" style="fill:#263238"></rect><rect x="310.8" y="186.47" width="39.35" height="53.81" transform="translate(-39.38 79.38) rotate(-12.93)" style="fill:#fff;opacity:0.8;isolation:isolate"></rect><rect x="310.91" y="194.63" width="30.91" height="2.73" transform="translate(-35.59 78.02) rotate(-12.93)" style="fill:#fff"></rect><rect x="312.23" y="200.4" width="30.91" height="2.73" transform="translate(-36.85 78.47) rotate(-12.93)" style="fill:#fff"></rect><rect x="313.56" y="206.17" width="30.91" height="2.73" transform="translate(-38.1 78.91) rotate(-12.93)" style="fill:#fff"></rect><polygon points="338.65 183.89 344.82 187.76 339.8 188.91 338.65 183.89" style="fill:#fff"></polygon><polygon points="339.92 269.48 314.99 269.48 314.99 225.79 339.92 202.26 339.92 269.48" style="fill:#4366D7"></polygon><rect x="339.92" y="202.26" width="20.26" height="67.22" style="fill:#4366D7"></rect><rect x="339.92" y="202.26" width="20.26" height="67.22" style="fill:#fff;opacity:0.4;isolation:isolate"></rect><rect x="126.99" y="269.48" width="256.1" height="10.91" style="fill:#4366D7"></rect><rect x="126.99" y="269.48" width="256.1" height="10.91" style="fill:#fff;opacity:0.6000000000000001;isolation:isolate"></rect><rect x="141.15" y="280.39" width="8.99" height="141.72" style="fill:#4366D7"></rect><rect x="186.36" y="280.39" width="8.99" height="141.72" style="fill:#4366D7"></rect><rect x="322.96" y="280.39" width="8.99" height="141.72" style="fill:#4366D7"></rect><rect x="365.3" y="280.39" width="8.99" height="141.72" style="fill:#4366D7"></rect><rect x="141.15" y="280.39" width="8.99" height="141.72" style="fill:#fff;opacity:0.4;isolation:isolate"></rect><rect x="186.36" y="280.39" width="8.99" height="141.72" style="fill:#fff;opacity:0.4;isolation:isolate"></rect><rect x="322.96" y="280.39" width="8.99" height="141.72" style="fill:#fff;opacity:0.4;isolation:isolate"></rect><rect x="365.3" y="280.39" width="8.99" height="141.72" style="fill:#fff;opacity:0.4;isolation:isolate"></rect><rect x="141.15" y="280.39" width="8.99" height="26.68" style="opacity:0.2"></rect><rect x="186.36" y="280.39" width="8.99" height="26.68" style="opacity:0.2"></rect><rect x="322.96" y="280.39" width="8.99" height="26.68" style="opacity:0.2"></rect><rect x="365.3" y="280.39" width="8.99" height="26.68" style="opacity:0.2"></rect><rect x="133.88" y="280.39" width="240.75" height="17.23" style="fill:#4366D7"></rect><rect x="133.88" y="280.39" width="240.75" height="17.23" style="fill:#fff;opacity:0.4;isolation:isolate"></rect><rect x="133.88" y="280.39" width="65.88" height="17.23" style="opacity:0.1"></rect><path d="M319.34,263.58v3.9c0,1.18-2,2-3.17,2H224.93c-1.17,0-3-.82-3-2v-3.9Z" style="fill:#263238"></path><path d="M319.34,263.58v3.9c0,1.18-2,2-3.17,2H224.93c-1.17,0-3-.82-3-2v-3.9Z" style="fill:#fff;opacity:0.6000000000000001;isolation:isolate"></path><path d="M319.34,263.58v3.9c0,1.18-2,2-3.17,2H256c-1.17,0-3.09-.82-3.09-2v-3.9Z" style="opacity:0.2;isolation:isolate"></path><path d="M334,215.61,323.11,265a3.85,3.85,0,0,1-3.53,3H260.25A2.58,2.58,0,0,1,258,264.7l10.85-48.9a3.4,3.4,0,0,1,3.53-2.42h59.33C333.32,213.38,334.32,214,334,215.61Z" style="fill:#263238"></path><path d="M334,215.61,323.11,265a3.85,3.85,0,0,1-3.53,3H260.25A2.58,2.58,0,0,1,258,264.7l10.85-48.9a3.4,3.4,0,0,1,3.53-2.42h59.33C333.32,213.38,334.32,214,334,215.61Z" style="fill:#fff;opacity:0.6000000000000001;isolation:isolate"></path><path d="M334,215.61,323.11,265a3.85,3.85,0,0,1-3.53,3H262.27A2.58,2.58,0,0,1,260,264.7l10.86-48.9a3.38,3.38,0,0,1,3.53-2.42h57.31C333.32,213.38,334.32,214,334,215.61Z" style="fill:#fff;opacity:0.4;isolation:isolate"></path><path d="M299.07,247.29c2.76,0,5.59-3,6.32-6.61s-.95-6.63-3.72-6.63a4.33,4.33,0,0,0-1.54.29,8.48,8.48,0,0,1-4.71,6,1.46,1.46,0,0,0-.07.3C294.62,244.32,296.29,247.29,299.07,247.29Z" style="opacity:0.2;isolation:isolate"></path><rect x="154.49" y="251.86" width="55.36" height="17.62" style="fill:#263238"></rect><rect x="154.49" y="251.86" width="55.36" height="17.62" style="fill:#fff;opacity:0.30000000000000004;isolation:isolate"></rect><rect x="152.72" y="266.03" width="58.47" height="3.45" style="fill:#263238"></rect><rect x="152.72" y="266.03" width="58.47" height="3.45" style="fill:#fff;opacity:0.8;isolation:isolate"></rect><rect x="152.72" y="260.73" width="58.47" height="3.45" style="fill:#263238"></rect><rect x="152.72" y="260.73" width="58.47" height="3.45" style="fill:#fff;opacity:0.8;isolation:isolate"></rect><rect x="152.72" y="255.43" width="58.47" height="3.45" style="fill:#263238"></rect><rect x="152.72" y="255.43" width="58.47" height="3.45" style="fill:#fff;opacity:0.8;isolation:isolate"></rect><rect x="152.72" y="250.14" width="58.47" height="3.45" style="fill:#263238"></rect><rect x="152.72" y="250.14" width="58.47" height="3.45" style="fill:#fff;opacity:0.8;isolation:isolate"></rect><rect x="160.05" y="247.11" width="55.75" height="3.03" style="fill:#263238"></rect><rect x="160.05" y="247.11" width="55.75" height="3.03" style="fill:#fff;opacity:0.30000000000000004;isolation:isolate"></rect><rect x="158.21" y="244.84" width="58.47" height="3.45" style="fill:#263238"></rect><rect x="158.21" y="244.84" width="58.47" height="3.45" style="fill:#fff;opacity:0.8;isolation:isolate"></rect><path d="M237.57,268.67h0a7.8,7.8,0,0,1-7.8-7.8v-7.8h15.59v7.8A7.8,7.8,0,0,1,237.57,268.67Z" style="fill:#4366D7"></path><path d="M233.51,265.2h-3a5.26,5.26,0,0,1,0-10.52h3Zm-3-8.52a3.26,3.26,0,0,0,0,6.52h1v-6.52Z" style="fill:#4366D7"></path><rect x="227.31" y="267.29" width="20.51" height="2.19" style="fill:#4366D7"></rect><path d="M240,243.57a3.42,3.42,0,0,0-.94,1.68,2.16,2.16,0,0,0,.33,1.7,2.9,2.9,0,0,1,.52,2.23,2.45,2.45,0,0,1-1.42,1.71l-.07-.08A4.91,4.91,0,0,0,239,249a3.74,3.74,0,0,0-.23-1.69,2.8,2.8,0,0,1-.11-2.23,3.64,3.64,0,0,1,1.36-1.61Z" style="fill:#4366D7"></path><path d="M234.75,248a3.37,3.37,0,0,0,.94-1.68,2.21,2.21,0,0,0-.33-1.7,2.9,2.9,0,0,1-.52-2.23,2.45,2.45,0,0,1,1.42-1.71l.06.08a5.14,5.14,0,0,0-.49,1.79,3.71,3.71,0,0,0,.23,1.69,2.88,2.88,0,0,1,.11,2.23,3.71,3.71,0,0,1-1.36,1.61Z" style="fill:#4366D7"></path><path d="M240,243.57a3.42,3.42,0,0,0-.94,1.68,2.16,2.16,0,0,0,.33,1.7,2.9,2.9,0,0,1,.52,2.23,2.45,2.45,0,0,1-1.42,1.71l-.07-.08A4.91,4.91,0,0,0,239,249a3.74,3.74,0,0,0-.23-1.69,2.8,2.8,0,0,1-.11-2.23,3.64,3.64,0,0,1,1.36-1.61Z" style="fill:#fff;opacity:0.6000000000000001;isolation:isolate"></path><path d="M234.75,248a3.37,3.37,0,0,0,.94-1.68,2.21,2.21,0,0,0-.33-1.7,2.9,2.9,0,0,1-.52-2.23,2.45,2.45,0,0,1,1.42-1.71l.06.08a5.14,5.14,0,0,0-.49,1.79,3.71,3.71,0,0,0,.23,1.69,2.88,2.88,0,0,1,.11,2.23,3.71,3.71,0,0,1-1.36,1.61Z" style="fill:#fff;opacity:0.6000000000000001;isolation:isolate"></path><path d="M137,254.93c.07-.12,2.51-1,2.51-1l3.7,1.8.62,3.37,1.48,1.95-3.93,4.59L135,264.42Z" style="fill:#263238"></path><path d="M137,254.93c.07-.12,2.51-1,2.51-1l3.7,1.8.62,3.37,1.48,1.95-3.93,4.59L135,264.42Z" style="fill:#fff;opacity:0.8;isolation:isolate"></path><path d="M138.66,259.68l-1.53,1.87L141,262.9l2.28,2.77-3.1,3.81-2.93-.9L129.88,266s.87-2.58,1-3.05,5.15-4.5,5.15-4.5Z" style="fill:#263238"></path><path d="M138.66,259.68l-1.53,1.87L141,262.9l2.28,2.77-3.1,3.81-2.93-.9L129.88,266s.87-2.58,1-3.05,5.15-4.5,5.15-4.5Z" style="fill:#fff;opacity:0.5;isolation:isolate"></path><path d="M127.81,261.68c0-.23-.41-3.84-.41-3.84l2.87-3.87,3.46-.08,3.13-.06,3,3.35-1.18,2.5L136,258.46l-4.55,1.1Z" style="fill:#263238"></path><path d="M127.81,261.68c0-.23-.41-3.84-.41-3.84l2.87-3.87,3.46-.08,3.13-.06,3,3.35-1.18,2.5L136,258.46l-4.55,1.1Z" style="fill:#fff;opacity:0.6000000000000001;isolation:isolate"></path><path d="M132,256.18l4,2.28-4.11,5.08,5.66,2.62-1.35-3.85,2.86,1.37,1.68,2.43-.65,3.48-4.28.27s-5.94.39-6.27-.31-3.21-4.61-3.21-4.61l-.43-2.89,4.77-2.88Z" style="fill:#263238"></path><path d="M132,256.18l4,2.28-4.11,5.08,5.66,2.62-1.35-3.85,2.86,1.37,1.68,2.43-.65,3.48-4.28.27s-5.94.39-6.27-.31-3.21-4.61-3.21-4.61l-.43-2.89,4.77-2.88Z" style="fill:#fff;opacity:0.8;isolation:isolate"></path><path d="M192.76,238.44c0-.05-.26-1.49-.26-1.49l1.42-1.8,1.92.06,1.24-.57,2,2.7-1.41,3.34Z" style="fill:#263238"></path><path d="M192.76,238.44c0-.05-.26-1.49-.26-1.49l1.42-1.8,1.92.06,1.24-.57,2,2.7-1.41,3.34Z" style="fill:#fff;opacity:0.8;isolation:isolate"></path><path d="M195.55,238.12l.84,1.06,1.2-1.93,1.79-.91,1.7,2.15-.84,1.49L198,243.67s-1.3-.78-1.54-.91a32.13,32.13,0,0,1-1.84-3.36Z" style="fill:#263238"></path><path d="M195.55,238.12l.84,1.06,1.2-1.93,1.79-.91,1.7,2.15-.84,1.49L198,243.67s-1.3-.78-1.54-.91a32.13,32.13,0,0,1-1.84-3.36Z" style="fill:#fff;opacity:0.5;isolation:isolate"></path><path d="M195.34,244.28c-.13-.05-2.15-.24-2.15-.24l-1.76-2,.37-1.9.34-1.72,2.19-1.22,1.22,1-1,1.28.05,2.62Z" style="fill:#263238"></path><path d="M195.34,244.28c-.13-.05-2.15-.24-2.15-.24l-1.76-2,.37-1.9.34-1.72,2.19-1.22,1.22,1-1,1.28.05,2.62Z" style="fill:#fff;opacity:0.6000000000000001;isolation:isolate"></path><path d="M192.84,241.31l1.73-1.91,2.28,2.86,2.11-2.77-2.26.27,1.09-1.4,1.53-.62,1.82.77-.37,2.38s-.5,3.28-.92,3.38-2.91,1.19-2.91,1.19l-1.63-.11-1-2.95Z" style="fill:#263238"></path><path d="M192.84,241.31l1.73-1.91,2.28,2.86,2.11-2.77-2.26.27,1.09-1.4,1.53-.62,1.82.77-.37,2.38s-.5,3.28-.92,3.38-2.91,1.19-2.91,1.19l-1.63-.11-1-2.95Z" style="fill:#fff;opacity:0.8;isolation:isolate"></path></g><g id="freepik--Papers--inject-3"><path d="M382.18,241.69c-5.25-7.06-12.34-13.74-19.47-20.4,9.37-8,24.36-13.94,42.08-21.77a64.3,64.3,0,0,1,5.88,33.59C398.34,234,389.25,239.12,382.18,241.69Z" style="fill:#263238"></path><path d="M403.67,230.51a62.57,62.57,0,0,0-7.19-23.67l2.48-1a62.55,62.55,0,0,1,6.55,24.3Z" style="fill:#fff"></path><path d="M399.83,231.51a63.17,63.17,0,0,0-8.52-22.46l2.35-1a62.68,62.68,0,0,1,7.91,23Z" style="fill:#fff"></path><path d="M396.22,232.64a65.69,65.69,0,0,0-9.82-21.4l2.23-1a64.28,64.28,0,0,1,9.23,21.87C397.3,232.28,396.76,232.45,396.22,232.64Z" style="fill:#fff"></path><path d="M382.18,241.69c-5.25-7.06-12.34-13.74-19.47-20.4,9.37-8,24.36-13.94,42.08-21.77a64.3,64.3,0,0,1,5.88,33.59C398.34,234,389.25,239.12,382.18,241.69Z" style="fill:#fff;opacity:0.8;isolation:isolate"></path><path d="M283.28,320.07c9.18,6.91,17.84,16.24,26.48,25.61,10.61-12.18,18.43-31.7,28.81-54.79a84,84,0,0,0-43.84-8C293.43,299,286.7,310.85,283.28,320.07Z" style="fill:#263238"></path><path d="M298.07,292.09a81.5,81.5,0,0,1,30.86,9.59l1.37-3.22a81.58,81.58,0,0,0-31.69-8.77Q298.34,290.9,298.07,292.09Z" style="fill:#fff"></path><path d="M296.74,297.09A82.75,82.75,0,0,1,326,308.42l1.34-3.06a81.8,81.8,0,0,0-30-10.54C297.17,295.59,297,296.34,296.74,297.09Z" style="fill:#fff"></path><path d="M295.23,301.81a85.71,85.71,0,0,1,27.87,13c.45-1,.89-1.93,1.34-2.91a84,84,0,0,0-28.5-12.24C295.71,300.39,295.47,301.1,295.23,301.81Z" style="fill:#fff"></path><path d="M283.28,320.07c9.18,6.91,17.84,16.24,26.48,25.61,10.61-12.18,18.43-31.7,28.81-54.79a84,84,0,0,0-43.84-8C293.43,299,286.7,310.85,283.28,320.07Z" style="fill:#fff;opacity:0.8;isolation:isolate"></path><path d="M399.19,350.9A46.72,46.72,0,0,0,387,342.58c11.14-2,24-7,33.36-18.38a40,40,0,0,1,4.94,22.16C415.77,348.51,406.86,351,399.19,350.9Z" style="fill:#263238"></path><path d="M419.8,345.34a30,30,0,0,0-4.3-13.79c.53-.43,1.05-.87,1.57-1.33a32.4,32.4,0,0,1,4.19,14.66Z" style="fill:#fff"></path><path d="M416.66,346.29A25.79,25.79,0,0,0,412,334.14c.55-.37,1.09-.75,1.63-1.15a27.52,27.52,0,0,1,4.48,12.87Z" style="fill:#fff"></path><path d="M413.56,347.15a22.94,22.94,0,0,0-5.2-10.77c.57-.32,1.13-.65,1.69-1A24,24,0,0,1,415,346.76C414.51,346.9,414,347,413.56,347.15Z" style="fill:#fff"></path><path d="M399.19,350.9A46.72,46.72,0,0,0,387,342.58c11.14-2,24-7,33.36-18.38a40,40,0,0,1,4.94,22.16C415.77,348.51,406.86,351,399.19,350.9Z" style="fill:#fff;opacity:0.8;isolation:isolate"></path><path d="M269.4,395.07c.06-.12,2.5-1,2.5-1l3.7,1.79.62,3.38,1.49,1.94-3.94,4.59-6.38-1.17Z" style="fill:#263238"></path><path d="M269.4,395.07c.06-.12,2.5-1,2.5-1l3.7,1.79.62,3.38,1.49,1.94-3.94,4.59-6.38-1.17Z" style="fill:#fff;opacity:0.8;isolation:isolate"></path><path d="M271,399.82l-1.53,1.87,3.83,1.34,2.28,2.78-3.09,3.81-2.94-.9-7.33-2.58s.87-2.57,1-3,5.15-4.5,5.15-4.5Z" style="fill:#263238"></path><path d="M271,399.82l-1.53,1.87,3.83,1.34,2.28,2.78-3.09,3.81-2.94-.9-7.33-2.58s.87-2.57,1-3,5.15-4.5,5.15-4.5Z" style="fill:#fff;opacity:0.5;isolation:isolate"></path><path d="M260.19,401.82c0-.24-.41-3.84-.41-3.84l2.87-3.87,3.46-.08,3.13-.07,3,3.35L271,399.82l-2.62-1.22-4.56,1.09Z" style="fill:#263238"></path><path d="M260.19,401.82c0-.24-.41-3.84-.41-3.84l2.87-3.87,3.46-.08,3.13-.07,3,3.35L271,399.82l-2.62-1.22-4.56,1.09Z" style="fill:#fff;opacity:0.6000000000000001;isolation:isolate"></path><path d="M264.42,396.31l4,2.29-4.12,5.07L270,406.3l-1.35-3.85,2.87,1.37,1.67,2.43-.64,3.48-4.29.27s-5.94.39-6.27-.31-3.2-4.62-3.2-4.62l-.44-2.89,4.78-2.87Z" style="fill:#263238"></path><path d="M264.42,396.31l4,2.29-4.12,5.07L270,406.3l-1.35-3.85,2.87,1.37,1.67,2.43-.64,3.48-4.29.27s-5.94.39-6.27-.31-3.2-4.62-3.2-4.62l-.44-2.89,4.78-2.87Z" style="fill:#fff;opacity:0.8;isolation:isolate"></path></g></svg>