<svg xmlns="http://www.w3.org/2000/svg" width="596" height="842" viewBox="0 0 596 842" version="1.1"><path d="M 275.775 294.532 C 209.853 303.521, 149.672 349.163, 118.912 413.500 C 104.638 443.355, 98.345 470.750, 97.319 507.500 C 95.725 564.566, 112.323 616.509, 144.882 656.356 C 154.253 667.824, 170.495 682.768, 175.082 684.143 C 185.306 687.206, 196 677.667, 196 665.482 C 196 659.480, 194.359 656.525, 185.861 647.230 C 160.162 619.121, 143.924 585.939, 136.810 547 C 133.922 531.193, 133.701 499.517, 136.366 483.500 C 138.612 470.002, 143.893 451.348, 148.682 440 C 161.403 409.857, 183.607 381.881, 205.541 368.361 C 211.018 364.985, 215.572 362.285, 215.660 362.361 C 215.748 362.438, 215.988 412.242, 216.194 473.037 C 216.558 580.780, 216.617 583.660, 218.534 586.933 C 222.311 593.384, 224.940 594.501, 236.326 594.493 C 249.713 594.485, 255.489 592.528, 262.531 585.617 C 266.082 582.132, 268.504 578.586, 270.123 574.500 L 272.500 568.500 272.130 495.695 C 271.927 455.652, 272.094 403.564, 272.501 379.945 L 273.241 337 300.695 337 L 328.148 337 327.911 456.367 L 327.674 575.733 329.782 578.693 C 332.886 583.053, 345.470 594.675, 349.143 596.574 C 350.893 597.479, 354.855 598.449, 357.949 598.729 C 367.907 599.632, 377.228 593.940, 381.718 584.213 C 383.295 580.796, 383.460 571.996, 383.784 473.750 C 383.978 415.038, 384.346 367, 384.602 367 C 384.857 367, 387.414 368.187, 390.283 369.637 C 434.800 392.137, 466.894 451.302, 466.982 511.026 C 467.022 538.587, 462.089 558.916, 449.064 584.872 C 443.284 596.391, 437.129 606.683, 421.249 631.385 C 406.127 654.907, 403.995 659.050, 404.022 664.852 C 404.083 677.667, 416.256 688.271, 427.250 685.085 C 430.541 684.131, 433.678 681.645, 441.151 674.063 C 474.469 640.263, 496.161 592.343, 501.933 539.789 C 503.458 525.911, 503.250 500.625, 501.488 485.559 C 496.750 445.055, 481.439 406.454, 457.376 374.345 C 449.941 364.424, 430.791 344.612, 421 336.713 C 379.458 303.196, 326.034 287.679, 275.775 294.532" stroke="none" fill="#8aa1f2" fill-rule="evenodd"/><path d="M 293 76.940 C 277.690 81.297, 228.727 98.737, 190.029 113.617 C 154.077 127.441, 154.025 127.507, 151.608 162.525 C 149.288 196.147, 148.073 221.191, 147.340 250.526 C 146.620 279.367, 146.217 277.022, 153.813 288.274 L 158.385 295.047 162.667 287.274 C 169.183 275.445, 169.571 272.539, 168.126 246.393 C 167.445 234.071, 167.154 223.559, 167.480 223.032 C 167.806 222.505, 172.443 219.527, 177.786 216.414 C 190.491 209.011, 193.604 205.940, 203.551 191 C 213.773 175.648, 216.724 172.449, 226.669 165.941 C 242.124 155.826, 261.428 147.965, 279.730 144.331 C 291.716 141.951, 316.219 141.953, 328.500 144.335 C 360.681 150.577, 390.295 164.465, 403.977 179.732 C 412.896 189.685, 420 207.962, 420 220.958 C 420 223.181, 420.206 225, 420.459 225 C 421.655 225, 536.703 191.694, 538.113 190.939 C 539 190.465, 540.292 188.709, 540.984 187.038 C 543.187 181.720, 541.035 178.649, 532.139 174.415 C 499.145 158.713, 361.785 95.315, 329.500 80.889 C 318.160 75.822, 317.005 75.515, 308.500 75.308 C 302.189 75.155, 297.558 75.643, 293 76.940 M 97.500 156.518 C 56.700 175.496, 59.839 173.736, 60.200 177.434 L 60.500 180.500 94 189.681 C 112.425 194.731, 128.647 198.893, 130.050 198.931 C 134.879 199.062, 135 198.366, 135 170.500 C 135 143.133, 134.814 141.946, 130.550 142.050 C 129.422 142.077, 114.550 148.588, 97.500 156.518 M 293.500 158.060 C 243.561 161.887, 221.670 171.374, 211.340 193.663 C 204.399 208.639, 202.708 221.230, 203.168 254.503 C 203.488 277.605, 203.588 278.654, 205.868 282.632 C 208.316 286.905, 214.193 291, 217.877 291 C 219.034 291, 224.598 289.245, 230.241 287.099 C 273.865 270.512, 316.395 269.968, 363.581 285.396 C 379.518 290.607, 383.257 290.964, 388.102 287.737 C 394.553 283.440, 395.319 280.238, 395.309 257.590 C 395.296 229.071, 392.798 212.317, 386.041 195.443 C 382.229 185.923, 378.656 180.718, 371.307 173.981 C 364.211 167.476, 352.498 161.811, 341.500 159.564 C 331.576 157.537, 309.390 156.842, 293.500 158.060 M 295 605.142 C 278.201 607.917, 262.808 621.477, 255.996 639.500 C 253.225 646.832, 252.159 663.631, 253.925 672.138 C 255.322 678.868, 260.580 690.057, 264.822 695.326 C 266.517 697.431, 276.137 714.865, 286.201 734.068 C 296.266 753.272, 304.725 768.983, 305 768.982 C 305.275 768.982, 313.098 752.898, 322.385 733.241 C 331.672 713.583, 340.575 695.841, 342.170 693.813 C 354.805 677.741, 356.567 651.290, 346.305 631.761 C 339.017 617.892, 324.649 607.313, 310 605.029 C 302.689 603.889, 302.585 603.889, 295 605.142" stroke="none" fill="#ffffff" fill-rule="evenodd"/><path d="" stroke="none" fill="#8ca4f4" fill-rule="evenodd"/><path d="" stroke="none" fill="#fcfcfc" fill-rule="evenodd"/></svg>